<svg xmlns="http://www.w3.org/2000/svg" xmlns:xlink="http://www.w3.org/1999/xlink" version="1.1" x="0px" y="0px" viewBox="0 0 48 60" style="enable-background:new 0 0 48 48;" xml:space="preserve"><style type="text/css">
	.st0{fill:none;}
</style><path d="M43.1,7.3H4.9C2.2,7.3,0,9.5,0,12.2v18.4c0,1.4,1.1,2.5,2.5,2.6C1.9,34,1.6,34.9,1.6,36c0,2.6,2.1,4.7,4.7,4.7  c2.2,0,4.1-1.5,4.6-3.6l1.1-0.2c0.4,2.2,2.3,3.8,4.6,3.8c2.6,0,4.7-2.1,4.7-4.7c0-1-0.3-2-0.9-2.7h7.1C27,34,26.7,35,26.7,36  c0,2.6,2.1,4.7,4.7,4.7c2.2,0,4.1-1.5,4.6-3.6l1.1-0.2c0.4,2.2,2.3,3.8,4.6,3.8c2.6,0,4.7-2.1,4.7-4.7c0-1-0.3-2-0.9-2.7  c1.4-0.1,2.5-1.2,2.5-2.6V12.2C48,9.5,45.8,7.3,43.1,7.3z M46,12.2v8.3h-9.7V9.3h6.8C44.7,9.3,46,10.6,46,12.2z M25,20.5V9.3h9.3  v11.2H25z M13.7,20.5V9.3H23v11.2H13.7z M4.9,9.3h6.8v11.2H2v-8.3C2,10.6,3.3,9.3,4.9,9.3z M6.3,38.7c-1.5,0-2.7-1.2-2.7-2.7  c0-1.5,1.2-2.7,2.7-2.7c1.3,0,2.4,0.9,2.7,2.1l-2.6,0.5c-0.5,0.1-0.9,0.6-0.8,1.2c0.1,0.5,0.6,0.9,1.2,0.8l1.8-0.3  C8.1,38.2,7.3,38.7,6.3,38.7z M10.2,33.2h2.6c-0.3,0.5-0.6,1-0.7,1.6L11,35C10.8,34.4,10.5,33.8,10.2,33.2z M19.3,36  c0,1.5-1.2,2.7-2.7,2.7c-1.3,0-2.4-0.9-2.7-2.2l2.4-0.4c0.5-0.1,0.9-0.6,0.8-1.2S16.5,34,16,34.1l-1.6,0.3c0.5-0.7,1.3-1.2,2.2-1.2  C18.1,33.2,19.3,34.5,19.3,36z M31.4,38.7c-1.5,0-2.7-1.2-2.7-2.7c0-1.5,1.2-2.7,2.7-2.7c1.3,0,2.4,0.9,2.7,2.1l-2.6,0.5  c-0.5,0.1-0.9,0.6-0.8,1.2c0.1,0.5,0.5,0.8,1,0.8c0.1,0,0.1,0,0.2,0l1.8-0.3C33.2,38.2,32.3,38.7,31.4,38.7z M35.2,33.2h2.6  c-0.3,0.5-0.6,1-0.7,1.6L36,35C35.9,34.4,35.6,33.8,35.2,33.2z M41.7,38.7c-1.3,0-2.4-0.9-2.7-2.2l2.4-0.4c0.5-0.1,0.9-0.6,0.8-1.2  S41.6,34,41,34.1l-1.6,0.3c0.5-0.7,1.3-1.2,2.2-1.2c1.5,0,2.7,1.2,2.7,2.7C44.4,37.5,43.2,38.7,41.7,38.7z M45.4,31.2H2.6  C2.3,31.2,2,31,2,30.6v-8.1h44v8.1C46,31,45.7,31.2,45.4,31.2z"/><text x="0" y="63" fill="#000000" font-size="5px" font-weight="bold" font-family="'Helvetica Neue', Helvetica, Arial-Unicode, Arial, Sans-serif"></text><text x="0" y="68" fill="#000000" font-size="5px" font-weight="bold" font-family="'Helvetica Neue', Helvetica, Arial-Unicode, Arial, Sans-serif"></text></svg>